{"title":"007 Spectre 2015 CAM x264 HiGHQAudio-Garmin","uid":12770020,"size":2438275209,"categoryP":"video","categoryS":"movies","magnet":"?xt=urn:btih:0c4a1a5e2aac0314896e53bef48c84b6642f08f8&amp;dn=007+Spectre+2015+CAM+x264+HiGHQAudio-Garmin+&amp;tr=udp%3A%2F%2Ftracker.leechers-paradise.org%3A6969&amp;tr=udp%3A%2F%2Fzer0day.ch%3A1337&amp;tr=udp%3A%2F%2Fopen.demonii.com%3A1337&amp;tr=udp%3A%2F%2Ftracker.coppersurfer.tk%3A6969&amp;tr=udp%3A%2F%2Fexodus.desync.com%3A6969","seeders":0,"leechers":3,"uploader":"makintos13","files":3,"time":1447657353,"description":"screens:\r\n \nhttp://imgmak.com/8l\r\n \nhttp://imgmak.com/8V\r\n \nhttp://imgmak.com/8e\r\n \nhttp://imgmak.com/8g\r\n \nhttp://imgmak.com/8o\r\n \nhttp://imgmak.com/8N\r\n\r\n:::::::::::::::::::::::::::::\r\n\r\nComplete name : 007 Spectre 2015 CAM x264 HiGHQAudio\r\nFormat : Matroska\r\nFormat version : Version 4 / Version 2\r\nFile size : 2.22 GiB\r\nDuration : 2h 18mn\r\nOverall bit rate : 2 296 Kbps\r\n\r\nVideo\r\nID : 1\r\nFormat : AVC\r\nFormat/Info : Advanced Video Codec\r\nFormat profile :   \r\nFormat settings, CABAC : Yes\r\nFormat settings, ReFrames : 4 frames\r\nCodec ID : V_MPEG4/ISO/AVC\r\nDuration : 2h 18mn\r\nBit rate : 2 166 Kbps\r\nWidth : 720 pixels\r\nHeight : 368 pixels\r\nDisplay aspect ratio : 1.957\r\nFrame rate mode : Constant\r\nFrame rate : 29.970 fps\r\nColor space : YUV\r\nChroma subsampling : 4:2:0\r\nBit depth : 8 bits\r\nScan type : Progressive\r\nBits/(Pixel*Frame) : 0.273\r\nStream size : 2.05 GiB (92%)\r\nWriting library : x264 core 148 r2638 7599210\r\nEncoding settings : cabac=1 / ref=5 / deblock=1:-3:-3 / analyse=0x3:0x133\r\n/ me=hex / subme=9 / psy=1 / psy_rd=1.00:0.80 / mixed_ref=1 / me_range=16 / chroma_me=1\r\n/ trellis=1 / 8x8dct=1 / cqm=0 / deadzone=21,11 / fast_pskip=1 / chroma_qp_offset=-4\r\n/ threads=9 / lookahead_threads=1 / sliced_threads=0 / nr=0 / decimate=1 / interlaced=0\r\n/ bluray_compat=0 / constrained_intra=0 / bframes=5 / b_pyramid=1 / b_adapt=2 / b_bias=0\r\n/ direct=1 / weightb=1 / open_gop=0 / weightp=2 / keyint=300 / keyint_min=29 / scenecut=50\r\n/ intra_refresh=0 / rc_lookahead=50 / rc=2pass / mbtree=1 / bitrate=2166 / ratetol=1.0\r\n/ qcomp=0.60 / qpmin=0 / qpmax=69 / qpstep=4 / cplxblur=20.0 / qblur=0.5 / ip_ratio=1.40\r\n/ aq=1:1.50\r\nLanguage : English\r\nDefault : Yes\r\nForced : No\r\n\r\nAudio\r\nID : 2\r\nFormat : MPEG Audio\r\nFormat version : Version 1\r\nFormat profile : Layer 3\r\nMode : Joint stereo\r\nMode extension : MS Stereo\r\nCodec ID : A_MPEG/L3\r\nCodec ID/Hint : MP3\r\nDuration : 2h 18mn\r\nBit rate mode : Constant\r\nBit rate : 128 Kbps\r\nChannel(s) : 2 channels\r\nSampling rate : 48.0 KHz\r\nCompression mode : Lossy\r\nStream size : 127 MiB (6%)\r\nLanguage : English\r\nDefault : Yes\r\nForced : No\r\n\r\nText\r\nID : 3\r\nFormat : UTF-8\r\nCodec ID : S_TEXT/UTF8\r\nCodec ID/Info : UTF-8 Plain Text\r\nLanguage : English/Where needed\r\nDefault : Yes\r\nForced : Yes\r\nSource Video : Sp3ctr3 2015 TS KM\r\nSource Audio : Spectre 2015 HDCAM XViD-RAV3N\r\nGenre : Action, Adventure, Thriller\r\nRelease Date : 11/6/2015\r\nSample Included : Yes\r\nImdb : http://www.imdb.com/title/tt2379713/\r\n\r\n:::::::::::::::::::::::::::::::::::::::::::::::::::::::::::::::\r\n\r\nWE know we know there are many out there but we had some folks ask us if we can do our\r\nversion so we did. WE cleaned it adjusted some nuts and bolts here and there lol and here it\r\nis. We used the russian version as it was a larger file with more bitrate. Increased\r\nbrightness for dark parts cleaned it up lowered the saturation to eliminate cross color talk\r\nlowered contrast to eliminate bright spots and sharpened. As always check sample as screens\r\nalways look better","torrent":{"xt":"urn:btih:0c4a1a5e2aac0314896e53bef48c84b6642f08f8","amp;dn":"007+Spectre+2015+CAM+x264+HiGHQAudio-Garmin+","amp;tr":["udp%3A%2F%2Ftracker.leechers-paradise.org%3A6969","udp%3A%2F%2Fzer0day.ch%3A1337","udp%3A%2F%2Fopen.demonii.com%3A1337","udp%3A%2F%2Ftracker.coppersurfer.tk%3A6969","udp%3A%2F%2Fexodus.desync.com%3A6969"],"infoHash":"0c4a1a5e2aac0314896e53bef48c84b6642f08f8","infoHashBuffer":{"type":"Buffer","data":[12,74,26,94,42,172,3,20,137,110,83,190,244,140,132,182,100,47,8,248]},"announce":[],"urlList":[]}}